<svg width="460" height="100" xmlns="http://www.w3.org/2000/svg">
 <!-- Created with Method Draw - http://github.com/duopixel/Method-Draw/ -->

 <g>
  <title>background</title>
  <rect fill="none" id="canvas_background" height="102" width="462" y="-1" x="-1"/>
  <g display="none" overflow="visible" id="canvasGrid">
   <rect fill="url(#gridpattern)" stroke-width="0" y="0" x="0" height="100%" width="100%"/>
  </g>
 </g>
 <g>
  <title>Layer 1</title>
  <path stroke="#000" transform="rotate(90 50.41178894042969,50.00000000000001) " id="svg_1" d="m14.41179,50.000001l15.428573,-30.44571l41.142859,0l15.428568,30.44571l-15.428568,30.44571l-41.142859,0l-15.428573,-30.44571z" stroke-width="1.5" fill="#000000"/>
  <g stroke="null" id="svg_6">
   <path stroke="null" id="svg_5" d="m61.525377,45.237313c0,-6.578464 -6.928223,-11.906721 -15.478738,-11.906721s-15.478738,5.328258 -15.478738,11.906721c0,2.552503 1.04928,4.904081 2.827846,6.846365c-0.997188,2.247394 -2.641804,4.033402 -2.664129,4.055727c-0.163717,0.171159 -0.208368,0.424177 -0.111626,0.647428s0.30511,0.357202 0.543244,0.357202c2.723663,0 4.978498,-0.915329 6.600789,-1.860425c2.396228,1.168347 5.231516,1.860425 8.282613,1.860425c8.550514,0 15.478738,-5.328258 15.478738,-11.906721zm9.078875,16.371742c1.778567,-1.934842 2.827846,-4.293861 2.827846,-6.846365c0,-4.978498 -3.98131,-9.242592 -9.622119,-11.021159c0.066975,0.491152 0.096742,0.989746 0.096742,1.495782c0,7.880761 -8.014712,14.288066 -17.860082,14.288066c-0.803704,0 -1.585082,-0.059534 -2.359019,-0.141392c2.344136,4.278978 7.850994,7.285425 14.265741,7.285425c3.051097,0 5.886385,-0.684636 8.282613,-1.860425c1.622291,0.945096 3.877126,1.860425 6.600789,1.860425c0.238134,0 0.453944,-0.141392 0.543244,-0.357202c0.096742,-0.215809 0.052092,-0.468827 -0.111626,-0.647428c-0.022325,-0.022325 -1.666941,-1.800892 -2.664129,-4.055727z" fill="#ffffff"/>
  </g>
  <text xml:space="preserve" text-anchor="start" font-family="Helvetica, Arial, sans-serif" font-size="24" id="svg_8" y="-78.5" x="252.5" stroke-opacity="null" stroke-width="0" stroke="#000" fill="#000000">Some text</text>
  <text stroke="null" transform="matrix(1.0689077377319336,0,0,1.1126760244369507,-7.993297576904297,-20.732388496398926) " font-weight="bold" xml:space="preserve" text-anchor="start" font-family="'Courier New', Courier, monospace" font-size="52" id="svg_48" y="77.318818" x="101.031449" fill-opacity="null" stroke-opacity="null" stroke-width="0" fill="#000000">CHATTERBOX</text>
 </g>
</svg>